{"title":"Man on a Ledge 2012 Cam V2 XviD Feel-Free","uid":7051572,"size":948196351,"categoryP":"video","categoryS":"movies","magnet":"?xt=urn:btih:63e279ef899937a97fbe64e56ecc33c35b5e610d&amp;dn=Man+on+a+Ledge+2012+Cam+V2+XviD+Feel-Free&amp;tr=udp%3A%2F%2Ftracker.openbittorrent.com%3A80&amp;tr=udp%3A%2F%2Fopen.demonii.com%3A1337&amp;tr=udp%3A%2F%2Ftracker.coppersurfer.tk%3A6969&amp;tr=udp%3A%2F%2Fexodus.desync.com%3A6969","seeders":0,"leechers":0,"uploader":".BONE.","files":8,"time":1329979186,"description":"Genre:Crime | Thriller\nLanguage:English &lt;a href=&quot;\nhttp://www.imdb.com/title/tt1568338/&quot; rel=&quot;nofollow&quot; target=&quot;_NEW&quot;&gt;\nhttp://www.imdb.com/title/tt1568338/&lt;/a&gt;\nSource:NoGrp/P76 Thanks!\nEncoder:Tony\n\nFormat : AVI\nFormat/Info : Audio Video Interleave\nFile size : 903 MiB\nDuration : 1h 35mn\nOverall bit rate : 1 327 Kbps\n\n\nVideo\nID : 0\nFormat : MPEG-4 Visual\nFormat profile : Advanced Simple@L5\nFormat settings, BVOP : 2\nFormat settings, QPel : No\nFormat settings, GMC : No warppoints\nFormat settings, Matrix : Default (H.263)\nMuxing mode : Packed bitstream\nCodec ID : XVID\nCodec ID/Hint : XviD\nDuration : 1h 35mn\nBit rate : 1 189 Kbps\nWidth : 720 pixels\nHeight : 304 pixels\nDisplay aspect ratio : 2.35:1\nFrame rate : 25.000 fps\nColor space : YUV\nChroma subsampling : 4:2:0\nBit depth : 8 bits\nScan type : Progressive\nCompression mode : Lossy\nBits/(Pixel*Frame) : 0.217\nStream size : 809 MiB (90%)\nWriting library : XviD 64\n\nAudio\nID : 1\nFormat : MPEG Audio\nFormat version : Version 1\nFormat profile : Layer 3\nMode : Joint stereo\nMode extension : MS Stereo\nCodec ID : 55\nCodec ID/Hint : MP3\nDuration : 1h 35mn\nBit rate mode : Constant\nBit rate : 128 Kbps\nChannel(s) : 2 channels\nSampling rate : 44.1 KHz\nCompression mode : Lossy\nStream size : 87.1 MiB (10%)\nAlignment : Split accross interleaves\nInterleave, duration : 40 ms (1.00 video frame)\nInterleave, preload duration : 500 ms\nWriting library : LAME3.99r\n\n\nPlot:\nAs a police psychologist works to talk down an ex-con who is threatening to jump from a Manhattan hotel rooftop, the biggest diamond heist ever committed is in motion.\n\n &lt;a href=&quot;\nhttp://imgcrave.com/u/6R1VK.png&quot; rel=&quot;nofollow&quot; target=&quot;_NEW&quot;&gt;\nhttp://imgcrave.com/u/6R1VK.png&lt;/a&gt; &lt;a href=&quot;\nhttp://imgcrave.com/u/NmnfX.png&quot; rel=&quot;nofollow&quot; target=&quot;_NEW&quot;&gt;\nhttp://imgcrave.com/u/NmnfX.png&lt;/a&gt; &lt;a href=&quot;\nhttp://imgcrave.com/u/0Pb5N.png&quot; rel=&quot;nofollow&quot; target=&quot;_NEW&quot;&gt;\nhttp://imgcrave.com/u/0Pb5N.png&lt;/a&gt; &lt;a href=&quot;\nhttp://imgcrave.com/u/8wnB1.png&quot; rel=&quot;nofollow&quot; target=&quot;_NEW&quot;&gt;\nhttp://imgcrave.com/u/8wnB1.png&lt;/a&gt;\n","torrent":{"xt":"urn:btih:63e279ef899937a97fbe64e56ecc33c35b5e610d","amp;dn":"Man+on+a+Ledge+2012+Cam+V2+XviD+Feel-Free","amp;tr":["udp%3A%2F%2Ftracker.openbittorrent.com%3A80","udp%3A%2F%2Fopen.demonii.com%3A1337","udp%3A%2F%2Ftracker.coppersurfer.tk%3A6969","udp%3A%2F%2Fexodus.desync.com%3A6969"],"infoHash":"63e279ef899937a97fbe64e56ecc33c35b5e610d","infoHashBuffer":{"type":"Buffer","data":[99,226,121,239,137,153,55,169,127,190,100,229,110,204,51,195,91,94,97,13]},"announce":[],"urlList":[]}}